  0
SECTION
  2
HEADER
  9
$ANGBASE
  50
0.0
  9
$ANGDIR
  70
  1
  9
$MEASUREMENT
  70
0
  0
ENDSEC
  0
SECTION
  2
TABLES
  0
TABLE
  2
LTYPE
  70
1
  0
LTYPE
  2
CONTINUOUS
  70
0
  3
Solid line
  72
65
  73
0
  40
0.0
  0
ENDTAB
  0
TABLE
  2
STYLE
  70
4
  0
STYLE
  2
KICAD
  70
0
  40
0
  41
1
  42
1
  50
0
  71
0
  3
isocp.shx
  0
STYLE
  2
KICADB
  70
0
  40
0
  41
1
  42
1
  50
0
  71
0
  3
isocp.shx
  0
STYLE
  2
KICADI
  70
0
  40
0
  41
1
  42
1
  50
15
  71
0
  3
isocp.shx
  0
STYLE
  2
KICADBI
  70
0
  40
0
  41
1
  42
1
  50
15
  71
0
  3
isocp.shx
  0
ENDTAB
  0
TABLE
  2
LAYER
  70
24
  0
LAYER
  2
BLACK
  70
0
  62
250
  6
CONTINUOUS
  0
LAYER
  2
BLUE
  70
0
  62
5
  6
CONTINUOUS
  0
LAYER
  2
GREEN
  70
0
  62
3
  6
CONTINUOUS
  0
LAYER
  2
CYAN
  70
0
  62
4
  6
CONTINUOUS
  0
LAYER
  2
RED
  70
0
  62
1
  6
CONTINUOUS
  0
LAYER
  2
MAGENTA
  70
0
  62
6
  6
CONTINUOUS
  0
LAYER
  2
BROWN
  70
0
  62
54
  6
CONTINUOUS
  0
LAYER
  2
LIGHTGRAY
  70
0
  62
9
  6
CONTINUOUS
  0
LAYER
  2
DARKGRAY
  70
0
  62
8
  6
CONTINUOUS
  0
LAYER
  2
LIGHTBLUE
  70
0
  62
171
  6
CONTINUOUS
  0
LAYER
  2
LIGHTGREEN
  70
0
  62
91
  6
CONTINUOUS
  0
LAYER
  2
LIGHTCYAN
  70
0
  62
131
  6
CONTINUOUS
  0
LAYER
  2
LIGHTRED
  70
0
  62
11
  6
CONTINUOUS
  0
LAYER
  2
LIGHTMAGENTA
  70
0
  62
221
  6
CONTINUOUS
  0
LAYER
  2
YELLOW
  70
0
  62
2
  6
CONTINUOUS
  0
LAYER
  2
WHITE
  70
0
  62
7
  6
CONTINUOUS
  0
LAYER
  2
DARKDARKGRAY
  70
0
  62
251
  6
CONTINUOUS
  0
LAYER
  2
DARKBLUE
  70
0
  62
178
  6
CONTINUOUS
  0
LAYER
  2
DARKGREEN
  70
0
  62
98
  6
CONTINUOUS
  0
LAYER
  2
DARKCYAN
  70
0
  62
138
  6
CONTINUOUS
  0
LAYER
  2
DARKRED
  70
0
  62
18
  6
CONTINUOUS
  0
LAYER
  2
DARKMAGENTA
  70
0
  62
228
  6
CONTINUOUS
  0
LAYER
  2
DARKBROWN
  70
0
  62
58
  6
CONTINUOUS
  0
LAYER
  2
LIGHTYELLOW
  70
0
  62
51
  6
CONTINUOUS
  0
ENDTAB
  0
ENDSEC
  0
SECTION
  2
ENTITIES
0
CIRCLE
8
BLACK
10
134
20
-114
40
1.6
0
CIRCLE
8
BLACK
10
176
20
-114
40
1.6
0
CIRCLE
8
BLACK
10
176
20
-26
40
1.6
0
CIRCLE
8
BLACK
10
134
20
-26
40
1.6
0
ARC
8
BLACK
10
132
20
-116
40
4
50
-180
51
-90
0
ARC
8
BLACK
10
178
20
-116
40
4
50
-90
51
0
0
ARC
8
BLACK
10
132
20
-24
40
4
50
90
51
180
0
LINE
8
BLACK
10
132
20
-20.075
11
178
21
-20.075
0
LINE
8
BLACK
10
132
20
-19.925
11
178
21
-19.925
0
ARC
8
BLACK
10
178
20
-20
40
0.075
50
270
51
450
0
ARC
8
BLACK
10
132
20
-20
40
0.075
50
90
51
270
0
LINE
8
BLACK
10
182.075
20
-116
11
182.075
21
-24
0
LINE
8
BLACK
10
181.925
20
-116
11
181.925
21
-24
0
ARC
8
BLACK
10
182
20
-24
40
0.075
50
360
51
540
0
ARC
8
BLACK
10
182
20
-116
40
0.075
50
180
51
360
0
LINE
8
BLACK
10
132
20
-120.075
11
178
21
-120.075
0
LINE
8
BLACK
10
132
20
-119.925
11
178
21
-119.925
0
ARC
8
BLACK
10
178
20
-120
40
0.075
50
270
51
450
0
ARC
8
BLACK
10
132
20
-120
40
0.075
50
90
51
270
0
ARC
8
BLACK
10
178
20
-24
40
4
50
0
51
90
0
CIRCLE
8
BLACK
10
140.44
20
-103.84
40
7.5
0
CIRCLE
8
BLACK
10
169.56
20
-103.84
40
7.5
0
CIRCLE
8
BLACK
10
134
20
-85.425
40
1.6
0
CIRCLE
8
BLACK
10
176
20
-85.425
40
1.6
0
CIRCLE
8
BLACK
10
122
20
-85.425
40
1.6
0
CIRCLE
8
BLACK
10
80
20
-85.425
40
1.6
0
CIRCLE
8
BLACK
10
115.56
20
-103.84
40
2
0
CIRCLE
8
BLACK
10
86.44
20
-103.84
40
2
0
LINE
8
BLACK
10
87.75
20
-25.075
11
114.25
21
-25.075
0
LINE
8
BLACK
10
87.75
20
-24.925
11
114.25
21
-24.925
0
ARC
8
BLACK
10
114.25
20
-25
40
0.075
50
270
51
450
0
ARC
8
BLACK
10
87.75
20
-25
40
0.075
50
90
51
270
0
LINE
8
BLACK
10
114.325
20
-77
11
114.325
21
-25
0
LINE
8
BLACK
10
114.175
20
-77
11
114.175
21
-25
0
ARC
8
BLACK
10
114.25
20
-25
40
0.075
50
360
51
540
0
ARC
8
BLACK
10
114.25
20
-77
40
0.075
50
180
51
360
0
LINE
8
BLACK
10
87.75
20
-77.075
11
114.25
21
-77.075
0
LINE
8
BLACK
10
87.75
20
-76.925
11
114.25
21
-76.925
0
ARC
8
BLACK
10
114.25
20
-77
40
0.075
50
270
51
450
0
ARC
8
BLACK
10
87.75
20
-77
40
0.075
50
90
51
270
0
LINE
8
BLACK
10
87.825
20
-77
11
87.825
21
-25
0
LINE
8
BLACK
10
87.675
20
-77
11
87.675
21
-25
0
ARC
8
BLACK
10
87.75
20
-25
40
0.075
50
360
51
540
0
ARC
8
BLACK
10
87.75
20
-77
40
0.075
50
180
51
360
0
ARC
8
BLACK
10
124
20
-24
40
4
50
0
51
90
0
LINE
8
BLACK
10
78
20
-120.075
11
124
21
-120.075
0
LINE
8
BLACK
10
78
20
-119.925
11
124
21
-119.925
0
ARC
8
BLACK
10
124
20
-120
40
0.075
50
270
51
450
0
ARC
8
BLACK
10
78
20
-120
40
0.075
50
90
51
270
0
LINE
8
BLACK
10
128.075
20
-116
11
128.075
21
-24
0
LINE
8
BLACK
10
127.925
20
-116
11
127.925
21
-24
0
ARC
8
BLACK
10
128
20
-24
40
0.075
50
360
51
540
0
ARC
8
BLACK
10
128
20
-116
40
0.075
50
180
51
360
0
LINE
8
BLACK
10
78
20
-20.075
11
124
21
-20.075
0
LINE
8
BLACK
10
78
20
-19.925
11
124
21
-19.925
0
ARC
8
BLACK
10
124
20
-20
40
0.075
50
270
51
450
0
ARC
8
BLACK
10
78
20
-20
40
0.075
50
90
51
270
0
ARC
8
BLACK
10
78
20
-24
40
4
50
90
51
180
0
ARC
8
BLACK
10
124
20
-116
40
4
50
-90
51
0
0
ARC
8
BLACK
10
78
20
-116
40
4
50
-180
51
-90
0
CIRCLE
8
BLACK
10
80
20
-26
40
1.6
0
CIRCLE
8
BLACK
10
122
20
-26
40
1.6
0
CIRCLE
8
BLACK
10
122
20
-114
40
1.6
0
CIRCLE
8
BLACK
10
80
20
-114
40
1.6
0
CIRCLE
8
BLACK
10
26
20
-114
40
1.6
0
CIRCLE
8
BLACK
10
68
20
-114
40
1.6
0
CIRCLE
8
BLACK
10
68
20
-26
40
1.6
0
CIRCLE
8
BLACK
10
26
20
-26
40
1.6
0
ARC
8
BLACK
10
24
20
-116
40
4
50
-180
51
-90
0
ARC
8
BLACK
10
70
20
-116
40
4
50
-90
51
0
0
ARC
8
BLACK
10
70
20
-24
40
4
50
0
51
90
0
ARC
8
BLACK
10
24
20
-24
40
4
50
90
51
180
0
LINE
8
BLACK
10
24
20
-20.075
11
70
21
-20.075
0
LINE
8
BLACK
10
24
20
-19.925
11
70
21
-19.925
0
ARC
8
BLACK
10
70
20
-20
40
0.075
50
270
51
450
0
ARC
8
BLACK
10
24
20
-20
40
0.075
50
90
51
270
0
LINE
8
BLACK
10
74.075
20
-116
11
74.075
21
-24
0
LINE
8
BLACK
10
73.925
20
-116
11
73.925
21
-24
0
ARC
8
BLACK
10
74
20
-24
40
0.075
50
360
51
540
0
ARC
8
BLACK
10
74
20
-116
40
0.075
50
180
51
360
0
LINE
8
BLACK
10
24
20
-120.075
11
70
21
-120.075
0
LINE
8
BLACK
10
24
20
-119.925
11
70
21
-119.925
0
ARC
8
BLACK
10
70
20
-120
40
0.075
50
270
51
450
0
ARC
8
BLACK
10
24
20
-120
40
0.075
50
90
51
270
0
LINE
8
BLACK
10
20.075
20
-116
11
20.075
21
-24
0
LINE
8
BLACK
10
19.925
20
-116
11
19.925
21
-24
0
ARC
8
BLACK
10
20
20
-24
40
0.075
50
360
51
540
0
ARC
8
BLACK
10
20
20
-116
40
0.075
50
180
51
360
  0
ENDSEC
  0
EOF
